<svg class="icon" viewBox="0 0 1024 1024" xmlns="http://www.w3.org/2000/svg" width="128" height="128"><defs><style/></defs><path d="M204.8 921.6h614.4a51.2 51.2 0 0 1 0 102.4H204.8a51.2 51.2 0 0 1 0-102.4zM51.2 0h921.6a51.2 51.2 0 0 1 51.2 51.2V768a51.2 51.2 0 0 1-51.2 51.2H51.2A51.2 51.2 0 0 1 0 768V51.2A51.2 51.2 0 0 1 51.2 0zm409.6 591.104V665.6h102.4v-74.394c10.445-7.219 21.504-15.82 32.666-25.292l60.928 60.928 72.448-72.448-60.928-60.928c9.472-11.162 18.073-22.221 25.292-32.666H768V358.4h-74.394a426.598 426.598 0 0 0-25.344-32.666l60.928-60.928-72.396-72.448-60.928 60.98a428.288 428.288 0 0 0-32.666-25.293V153.6H460.8v74.445c-10.445 7.219-21.504 15.82-32.666 25.293l-60.928-60.928-72.448 72.396 60.928 60.928a426.598 426.598 0 0 0-25.241 32.666H256v102.4h74.445c7.168 10.445 15.82 21.504 25.293 32.666l-60.928 60.928 72.396 72.448 60.928-61.03c11.264 9.471 22.221 18.073 32.666 25.292z"/></svg>